<svg width="100" height="30" viewBox="0 0 100 30" fill="none" xmlns="http://www.w3.org/2000/svg">
<path d="M18.5409 3.33325C25.7072 3.33359 27.2909 11.25 27.2909 15.2083V26.4583H20.2118V15.2083C20.2118 12.0127 19.1799 6.23832 15.0116 4.1311C15.9937 3.62798 17.1596 3.33325 18.5409 3.33325ZM11.4618 3.33325C12.8429 3.33325 14.0166 3.62809 15.0116 4.1311C10.8978 6.23846 10.0057 12.0128 9.99889 15.2083C9.9904 19.1666 9.99889 26.4583 9.99889 26.4583H2.92076C2.92076 26.4562 2.91228 19.166 2.92076 15.2083C2.92925 11.25 4.29546 3.33354 11.4618 3.33325Z" fill="#5BA26B"/>
<path d="M41.264 24V23.688L43.376 23.52V7.584H40.424L38.552 12.024H38.24V7.2H51.584V12.024H51.272L49.4 7.584H46.472V23.52L48.56 23.688V24H41.264ZM51.3076 24V23.688L52.6996 23.52V13.392L51.2836 13.704L51.2356 13.392L55.0276 12.48H55.3396L55.4596 16.344L57.6676 12.48H59.3956V15.36H56.4676L55.4596 16.8V23.52L57.5716 23.688V24H51.3076ZM69.8144 21.24L69.9824 21.456C68.5184 22.848 67.4384 23.568 65.7104 24.36C62.7344 24.36 60.1424 22.392 60.1424 18.864C60.1424 15.12 62.6864 13.008 65.6864 12.36C68.3024 12.36 69.9344 13.944 69.9344 16.704V17.472H62.6384C62.7584 20.352 64.4384 22.176 66.9104 22.176C67.9904 22.176 68.9024 21.792 69.8144 21.24ZM64.9664 13.008C63.4304 13.008 62.6384 14.424 62.6384 17.16H66.9824V16.464C66.9824 14.4 66.5984 13.008 64.9664 13.008ZM70.7831 24V23.688L72.1991 23.52V7.752L70.8071 7.968L70.7591 7.632L74.6471 6.888H74.9591V23.52L76.3511 23.688V24H70.7831ZM77.4628 24V23.688L78.8788 23.52V7.752L77.4868 7.968L77.4388 7.632L81.3268 6.888H81.6388V23.52L83.0308 23.688V24H77.4628ZM88.1984 9.936L86.3024 10.08L85.6304 9.936L85.4864 8.472L85.7264 7.296L87.5984 7.176L88.3184 7.296L88.4384 8.664L88.1984 9.936ZM84.1904 24V23.688L85.5824 23.52V13.44L84.1664 13.728L84.1184 13.392L88.0544 12.48H88.3424V23.52L89.7584 23.688V24H84.1904ZM94.9222 24.384C93.4822 24.384 91.9462 23.928 91.0102 23.424V20.064H91.2982L92.6662 22.752C93.3622 23.4 93.9862 23.856 94.9462 23.856C96.2182 23.856 96.8422 23.112 96.8422 22.32C96.8422 21.216 96.2902 20.808 94.9942 19.992L92.8822 18.6C91.9222 17.976 90.9622 17.28 90.9622 15.792C90.9622 14.184 92.3062 13.032 94.9462 12.36C96.6262 12.36 97.5862 12.696 98.5942 13.176V16.392H98.2822L96.8422 13.656C96.1462 13.008 95.5942 12.84 94.8262 12.84C93.8422 12.84 93.1942 13.416 93.1942 14.304C93.1942 15.24 93.8422 15.696 94.9942 16.44L97.1782 17.832C98.5462 18.696 99.0502 19.464 99.0262 20.712C99.0262 22.368 97.7062 23.712 94.9222 24.384Z" fill="black"/>
</svg>
